<svg width="34" height="34" viewBox="0 0 34 34" fill="none" xmlns="http://www.w3.org/2000/svg">
<path d="M29.75 15.5834L18.9917 4.82505C18.2566 4.09 17.8891 3.72248 17.4602 3.45965C17.08 3.22663 16.6654 3.05491 16.2317 2.9508C15.7426 2.83337 15.2228 2.83337 14.1833 2.83337L8.5 2.83337M4.25 12.325L4.25 15.1223C4.25 15.8153 4.25 16.1618 4.32829 16.4879C4.39769 16.777 4.51217 17.0533 4.66752 17.3068C4.84274 17.5928 5.08775 17.8378 5.57778 18.3278L16.6278 29.3778C17.7498 30.4999 18.3109 31.0609 18.9578 31.2711C19.5268 31.456 20.1398 31.456 20.7089 31.2711C21.3558 31.0609 21.9168 30.4999 23.0389 29.3778L26.5444 25.8723C27.6665 24.7502 28.2275 24.1892 28.4377 23.5423C28.6226 22.9732 28.6226 22.3602 28.4377 21.7912C28.2275 21.1442 27.6665 20.5832 26.5445 19.4612L16.2028 9.11949C15.7128 8.62946 15.4677 8.38445 15.1818 8.20923C14.9283 8.05388 14.6519 7.9394 14.3628 7.86999C14.0367 7.79171 13.6902 7.79171 12.9972 7.79171H8.78333C7.19652 7.79171 6.40311 7.79171 5.79703 8.10052C5.2639 8.37216 4.83046 8.80561 4.55882 9.33873C4.25 9.94482 4.25 10.7382 4.25 12.325Z" stroke="black" stroke-width="2" stroke-linecap="round" stroke-linejoin="round"/>
</svg>
