<svg width="34" height="34" viewBox="0 0 34 34" fill="none" xmlns="http://www.w3.org/2000/svg">
<path d="M10.625 14.875H10.6392M17 14.875H17.0142M23.375 14.875H23.3892M14.025 27.2L16.0933 29.9578C16.4009 30.3679 16.5547 30.5729 16.7432 30.6463C16.9084 30.7105 17.0916 30.7105 17.2567 30.6463C17.4453 30.5729 17.5991 30.3679 17.9067 29.9578L19.975 27.2C20.3903 26.6463 20.5979 26.3694 20.8512 26.158C21.1889 25.8762 21.5876 25.6769 22.0157 25.5758C22.3368 25.5 22.6828 25.5 23.375 25.5C25.3553 25.5 26.3454 25.5 27.1264 25.1765C28.1678 24.7451 28.9951 23.9178 29.4265 22.8764C29.75 22.0954 29.75 21.1053 29.75 19.125V11.05C29.75 8.66978 29.75 7.47967 29.2868 6.57054C28.8793 5.77085 28.2291 5.12068 27.4295 4.71322C26.5203 4.25 25.3302 4.25 22.95 4.25H11.05C8.66978 4.25 7.47967 4.25 6.57054 4.71322C5.77085 5.12068 5.12068 5.77085 4.71322 6.57054C4.25 7.47967 4.25 8.66978 4.25 11.05V19.125C4.25 21.1053 4.25 22.0954 4.57351 22.8764C5.00486 23.9178 5.83223 24.7451 6.8736 25.1765C7.65462 25.5 8.64475 25.5 10.625 25.5C11.3172 25.5 11.6632 25.5 11.9843 25.5758C12.4124 25.6769 12.8111 25.8762 13.1488 26.158C13.4021 26.3694 13.6097 26.6463 14.025 27.2ZM11.3333 14.875C11.3333 15.2662 11.0162 15.5833 10.625 15.5833C10.2338 15.5833 9.91667 15.2662 9.91667 14.875C9.91667 14.4838 10.2338 14.1667 10.625 14.1667C11.0162 14.1667 11.3333 14.4838 11.3333 14.875ZM17.7083 14.875C17.7083 15.2662 17.3912 15.5833 17 15.5833C16.6088 15.5833 16.2917 15.2662 16.2917 14.875C16.2917 14.4838 16.6088 14.1667 17 14.1667C17.3912 14.1667 17.7083 14.4838 17.7083 14.875ZM24.0833 14.875C24.0833 15.2662 23.7662 15.5833 23.375 15.5833C22.9838 15.5833 22.6667 15.2662 22.6667 14.875C22.6667 14.4838 22.9838 14.1667 23.375 14.1667C23.7662 14.1667 24.0833 14.4838 24.0833 14.875Z" stroke="black" stroke-width="2" stroke-linecap="round" stroke-linejoin="round"/>
</svg>
