<svg width="150" height="56" viewBox="0 0 150 56" fill="none" xmlns="http://www.w3.org/2000/svg">
<path d="M6.112 28.5V50.676H74.719H143.326V28.5V6.32403H74.719H6.112V28.5ZM142.402 28.5V49.29H74.719H7.036V28.5V7.71003H74.719H142.402V28.5Z" fill="black"/>
<path d="M110.57 11.9604C109.277 13.5774 108.214 14.9634 108.214 15.102C108.26 15.2406 109.23 16.1184 110.432 17.0886L112.603 18.798L113.435 17.7816C114.266 16.7652 114.266 16.719 113.157 15.7488L111.956 14.7324L113.573 12.8844C114.451 11.868 115.144 10.8978 115.144 10.713C115.144 10.3434 113.712 9.14223 113.25 9.09604C113.065 9.09604 111.864 10.3896 110.57 11.9604ZM113.943 10.4358C114.081 10.6668 113.481 11.7294 112.603 12.8382L110.986 14.871L112.187 15.8412C114.035 17.3658 112.649 17.7354 110.709 16.257L109.138 15.0558L111.078 12.5148C113.065 10.02 113.481 9.69663 113.943 10.4358Z" fill="black"/>
<path d="M10.27 28.5V46.518H39.376H68.482V40.6044C68.482 37.3704 68.6668 34.506 68.8516 34.2288C69.1288 33.7668 71.8546 32.658 72.5938 32.658C72.7786 32.658 72.9172 35.4762 72.871 38.895C72.871 43.977 73.0096 45.2244 73.564 45.594C74.6266 46.287 83.0812 46.1946 83.5894 45.4554C83.8666 45.1782 84.421 43.746 84.883 42.36C85.345 40.974 86.0842 39.0336 86.5924 38.0634L87.424 36.354H91.0276H94.6312V40.512C94.6774 46.1022 94.6774 46.1022 100.73 45.9636C104.472 45.8712 105.673 45.6864 105.95 45.132C106.135 44.7624 107.151 42.8682 108.214 40.9278L110.154 37.3704L112.695 38.5254C117.362 40.6968 123.368 40.4196 128.634 37.7862C129.974 37.0932 131.083 36.2616 131.083 35.892C131.083 35.1066 106.736 16.6266 103.779 15.102C100.637 13.5312 97.0336 13.1154 88.7638 13.3464C83.035 13.5312 80.9098 13.4388 80.3092 12.9768C79.1542 12.1452 71.1154 12.1914 70.0066 13.0692C68.7592 14.0394 68.482 13.8546 68.482 12.099V10.482H39.376H10.27V28.5ZM79.2466 15.0096C79.6624 15.4716 80.032 16.8576 80.1244 18.336C80.263 20.5074 80.4016 20.877 81.187 20.877C81.9724 20.877 82.111 20.5074 82.2496 18.1974L82.3882 15.5178L84.0976 15.6564C87.0544 15.8874 88.81 19.5834 88.81 25.728C88.81 28.3614 88.579 29.6088 87.886 30.81C85.6684 34.6908 84.421 37.278 83.266 40.281C82.0186 43.4226 81.9724 43.515 80.263 43.6536L78.5536 43.7922L78.7846 38.1096C78.9694 34.968 79.1542 31.9188 79.2004 31.272L79.339 30.117L75.412 30.2094C71.9932 30.3018 71.0692 30.5328 68.2048 31.965C66.3106 32.889 64.1854 34.3674 63.2152 35.43C61.9678 36.816 61.2286 37.278 60.1198 37.278C58.78 37.278 58.6876 37.1856 59.011 35.9844C60.1198 31.4568 64.324 25.497 69.0364 21.801C70.8382 20.415 72.4552 19.26 72.6862 19.26C72.9172 19.26 73.102 19.8144 73.102 20.4612C73.102 21.4314 73.2868 21.6162 74.1646 21.4776C75.0886 21.339 75.181 21.0618 75.3196 18.336C75.412 16.719 75.6892 15.102 75.9664 14.7786C76.6594 13.9008 78.3688 14.0394 79.2466 15.0096ZM28.981 23.187C30.2284 24.3882 30.5056 26.5134 29.6278 28.1304C29.0272 29.2392 26.5324 30.348 24.592 30.348C23.2984 30.348 23.206 30.4404 23.206 32.196C23.206 33.7206 23.0674 34.044 22.282 34.044C21.4042 34.044 21.358 33.7206 21.358 28.038V22.032H24.592C27.4564 22.032 28.0108 22.1706 28.981 23.187ZM41.5474 23.0484C42.9334 24.342 43.0258 27.1602 41.686 28.5C41.1778 29.0082 40.531 29.424 40.3 29.424C40.0228 29.424 40.4386 30.348 41.224 31.4568C42.841 33.8592 42.8872 34.044 41.7322 34.044C41.1778 34.044 40.3462 33.2586 39.5146 31.965C38.4982 30.348 37.9438 29.886 36.9736 29.886C35.7724 29.886 35.68 30.0246 35.68 31.965C35.68 33.7206 35.5414 34.044 34.756 34.044C33.8782 34.044 33.832 33.7206 33.832 28.038V22.032H37.1584C39.9304 22.032 40.6696 22.2168 41.5474 23.0484ZM54.622 22.725C54.622 23.2794 53.9752 23.418 51.619 23.418H48.616V25.266V27.114H51.388C53.5594 27.114 54.16 27.2526 54.16 27.807C54.16 28.3614 53.5594 28.5 51.388 28.5H48.616V30.579V32.658H51.619C53.9752 32.658 54.622 32.7966 54.622 33.351C54.622 33.9054 53.8828 34.044 50.695 34.044H46.768V28.038V22.032H50.695C53.8828 22.032 54.622 22.1706 54.622 22.725ZM127.849 35.892C127.71 36.123 126.509 36.5388 125.169 36.8622C122.351 37.4628 119.071 36.9546 116.16 35.4762C113.481 34.1364 112.649 32.9814 113.019 31.0872C113.296 29.7012 112.88 26.883 112.095 24.2034C111.956 23.6952 115.329 25.959 119.949 29.424C124.43 32.7966 127.941 35.7072 127.849 35.892ZM109.277 31.2258C110.016 31.965 110.062 32.1498 109.369 33.7668C108.953 34.737 107.567 37.3704 106.274 39.6342C104.102 43.515 103.871 43.746 102.439 43.746C101.053 43.746 100.914 43.6074 100.591 42.0828C100.037 39.126 100.822 33.1662 101.931 31.8726C103.64 29.886 107.521 29.5626 109.277 31.2258Z" fill="black"/>
<path d="M73.7488 25.497C73.3792 26.421 73.8874 27.7146 74.5804 27.4836C74.8576 27.3912 75.3196 26.9292 75.5968 26.5134C75.9664 25.9128 75.9202 25.5894 75.412 25.266C74.4418 24.6192 74.026 24.7116 73.7488 25.497Z" fill="black"/>
<path d="M23.206 25.959V28.5H24.8692C27.2254 28.5 28.288 27.807 28.288 26.19C28.288 24.342 27.1792 23.418 25.0078 23.418H23.206V25.959Z" fill="black"/>
<path d="M35.68 25.728V28.038H37.6666C39.9766 28.038 40.762 27.4374 40.762 25.6356C40.762 24.111 39.6532 23.418 37.3432 23.418H35.68V25.728Z" fill="black"/>
<path d="M115.514 15.564C114.312 16.8114 114.128 17.2272 114.359 18.7056C114.959 22.4478 119.441 23.88 121.797 21.0618C123.183 19.4448 123.275 18.798 122.305 16.719C120.919 13.9008 117.731 13.3464 115.514 15.564ZM121.058 16.1646C121.658 16.719 122.074 17.643 122.074 18.4284C122.074 20.0916 120.226 22.032 118.701 22.032C117.177 22.032 115.144 20.0454 115.144 18.567C115.144 15.0096 118.378 13.716 121.058 16.1646Z" fill="black"/>
<path d="M116.715 17.181C116.022 18.2436 116.022 18.4284 116.715 19.491C117.639 20.877 119.533 21.0156 120.226 19.7682C120.873 18.5208 120.827 17.5968 119.949 16.7652C118.886 15.7026 117.593 15.8412 116.715 17.181ZM119.718 17.5968C120.134 18.0588 120.041 18.4746 119.441 19.2138C118.701 20.0916 118.517 20.1378 117.731 19.5834C117.131 19.1676 116.992 18.6594 117.177 17.9664C117.546 16.8114 118.932 16.6266 119.718 17.5968Z" fill="black"/>
<path d="M122.813 21.8473L121.52 25.8205L122.444 26.7445L123.368 27.7147L126.324 25.9591C127.895 24.9889 129.42 24.0649 129.697 23.9263C130.113 23.6953 129.605 24.4345 126.971 27.7609L125.678 29.4241L127.202 30.6715C129.882 32.9353 130.113 33.0739 130.713 32.5657C131.545 31.8727 131.453 31.2721 130.298 29.9323C129.374 28.9159 129.374 28.8697 130.205 29.5627C131.453 30.5791 132.099 30.5791 132.7 29.4703C133.07 28.7311 132.977 28.4077 132.146 27.8533C131.591 27.4375 131.314 27.1141 131.499 27.1141C131.73 27.1141 132.33 27.4837 132.839 27.8995C133.67 28.6849 133.716 28.6849 134.363 27.8071C134.733 27.3451 135.01 26.8369 134.964 26.6983C134.918 26.2825 129.605 22.0321 128.773 21.7549C128.403 21.5701 127.572 21.8011 126.925 22.2169C125.4 23.2333 125.308 23.1871 125.909 21.3391C126.324 19.9993 126.232 19.5835 125.539 18.7981C125.077 18.2899 124.569 17.8741 124.43 17.8741C124.245 17.8741 123.506 19.6759 122.813 21.8473ZM125.447 19.5373C125.585 19.6759 125.308 20.9233 124.846 22.3093L123.968 24.8503L126.232 23.5567C127.803 22.6789 128.681 22.4479 129.004 22.7713C129.327 23.0947 128.496 23.7877 126.417 24.9889C122.444 27.3451 121.982 26.9293 123.414 22.4941C124.384 19.4449 124.754 18.8905 125.447 19.5373ZM132.561 25.5433C133.393 26.1901 133.994 26.9293 133.809 27.1603C133.624 27.4375 133.208 27.3451 132.654 26.8369C131.822 26.0977 130.39 26.2363 130.39 27.0679C130.39 27.2989 130.806 27.8071 131.36 28.1767C132.007 28.6387 132.146 28.9621 131.776 29.1931C131.499 29.3779 130.898 29.1931 130.436 28.7773C129.697 28.0843 129.558 28.0843 129.004 28.7311C128.496 29.3317 128.542 29.5627 129.374 30.1633C129.928 30.5329 130.39 31.1797 130.39 31.5493C130.39 32.0575 129.882 31.8727 128.542 30.8101L126.694 29.3317L128.634 26.8369C129.743 25.4509 130.713 24.3421 130.806 24.3421C130.898 24.3421 131.684 24.8965 132.561 25.5433Z" fill="black"/>
<path d="M133.254 30.117C131.915 31.734 130.852 33.2124 130.852 33.351C130.852 33.813 132.7 35.3376 134.225 36.1692C137.551 37.971 141.432 34.1826 139.63 30.81C139.399 30.348 138.383 29.3316 137.412 28.5924L135.657 27.2064L133.254 30.117ZM137.412 29.4702C139.307 30.8562 139.815 32.3808 138.891 34.0902C138.152 35.5686 136.719 36.354 135.426 36.0306C135.01 35.892 133.947 35.2452 133.116 34.5522L131.591 33.2586L133.624 30.9024C134.733 29.5626 135.703 28.5 135.842 28.5C135.934 28.5 136.627 28.962 137.412 29.4702Z" fill="black"/>
<path d="M134.871 31.503C133.809 32.8428 133.67 33.3048 134.086 33.813C134.825 34.737 136.627 34.6908 137.505 33.7668C138.475 32.8428 138.429 32.4732 137.228 31.041L136.165 29.8398L134.871 31.503ZM137.135 31.965C137.412 32.6118 136.627 34.044 135.98 34.044C135.842 34.044 135.38 33.8592 135.01 33.582C134.456 33.2586 134.456 33.0276 135.195 32.2422C136.257 31.0872 136.812 31.041 137.135 31.965Z" fill="black"/>
</svg>
